<svg width="228" height="260" viewBox="0 0 228 260" fill="none" xmlns="http://www.w3.org/2000/svg">
<path d="M225.432 167.15L205.882 118V103C205.602 74.99 194.062 50.09 175.642 31.77C157.232 13.45 131.852 2 103.882 2C102.922 2 101.962 2.01 101.002 2.04V66.64C117.792 73.01 129.752 89.26 129.752 108.25C129.752 132.79 109.792 152.75 85.252 152.75C60.712 152.75 40.752 132.79 40.752 108.25C40.752 89.45 52.48 73.5 69 67V8C29.91 22.33 2 59.79 2 104C2 133.31 14.282 160.2 33.942 178.85L33.882 258H145.882V238H165.882C187.962 238 205.882 220.17 205.882 198V178H217.882C223.542 178 227.532 172.41 225.432 167.15ZM177.832 129C171.762 129 166.842 124.06 166.842 117.96C166.842 111.86 171.762 106.93 177.832 106.93C183.902 106.93 188.822 111.86 188.822 117.96C188.822 124.06 183.902 129 177.832 129ZM60.752 108.25C60.752 121.76 71.742 132.75 85.252 132.75C98.762 132.75 109.752 121.76 109.752 108.25C109.752 94.74 98.762 83.75 85.252 83.75C71.742 83.75 60.752 94.74 60.752 108.25Z" fill="#8A7EBE"/>
</svg>
