<svg width="24" height="24" viewBox="0 0 24 24" fill="none" xmlns="http://www.w3.org/2000/svg">
<g clip-path="url(#clip0_101_21)">
<path d="M21.07 0.169C20.922 0.063 20.737 0 20.538 0C20.427 0 20.321 0.02 20.222 0.055L20.228 0.053L9.15099 3.991C8.78999 4.122 8.53799 4.462 8.53799 4.86V4.861V7.054V7.096V17.7C8.00399 17.405 7.36899 17.231 6.69199 17.229H6.69099C6.64799 17.227 6.59799 17.226 6.54799 17.226C4.64399 17.226 3.08999 18.723 2.99899 20.605V20.613C3.08999 22.503 4.64399 24.001 6.54799 24.001C6.59799 24.001 6.64799 24 6.69799 23.998H6.69099C6.73399 24 6.78399 24.001 6.83399 24.001C8.73799 24.001 10.292 22.504 10.383 20.622V20.614V7.731L19.613 4.508V13.481C19.079 13.187 18.443 13.013 17.767 13.011H17.766C17.723 13.009 17.672 13.008 17.622 13.008C15.718 13.008 14.165 14.506 14.075 16.387V16.395C14.165 18.285 15.719 19.783 17.623 19.783C17.674 19.783 17.724 19.782 17.774 19.78H17.767C17.798 19.781 17.835 19.782 17.872 19.782C19.568 19.782 20.992 18.616 21.385 17.042L21.39 17.017C21.432 16.916 21.458 16.8 21.459 16.677V0.923C21.459 0.613 21.306 0.338 21.071 0.171L21.068 0.169H21.07Z" fill="#8A7EBE"/>
</g>
<defs>
<clipPath id="clip0_101_21">
<rect width="24" height="24" fill="white"/>
</clipPath>
</defs>
</svg>
