<svg width="48" height="48" viewBox="0 0 48 48" fill="none" xmlns="http://www.w3.org/2000/svg">
<g clip-path="url(#clip0_103_2)">
<path d="M17.991 40.976C17.991 44.638 15.022 47.607 11.36 47.607C7.698 47.607 4.729 44.638 4.729 40.976V6.631C4.729 2.969 7.698 0 11.36 0C15.022 0 17.991 2.969 17.991 6.631V40.976Z" fill="#8A7EBE"/>
<path d="M42.877 40.976C42.877 44.638 39.908 47.607 36.246 47.607C32.584 47.607 29.615 44.638 29.615 40.976V6.631C29.616 2.969 32.585 0 36.246 0C39.908 0 42.877 2.969 42.877 6.631V40.976Z" fill="#8A7EBE"/>
</g>
<defs>
<clipPath id="clip0_103_2">
<rect width="47.607" height="47.607" fill="white"/>
</clipPath>
</defs>
</svg>
