<svg width="512" height="512" viewBox="0 0 512 512" fill="none" xmlns="http://www.w3.org/2000/svg">
<path d="M133 440C126.86 439.989 120.829 438.379 115.5 435.33C103.5 428.53 96.04 415.33 96.04 401V111C96.04 96.63 103.5 83.47 115.5 76.67C120.956 73.5344 127.154 71.9218 133.447 72.001C139.739 72.0802 145.895 73.8481 151.27 77.12L399.12 225.48C404.285 228.719 408.544 233.217 411.495 238.551C414.447 243.886 415.995 249.883 415.995 255.98C415.995 262.077 414.447 268.074 411.495 273.409C408.544 278.743 404.285 283.241 399.12 286.48L151.23 434.88C145.729 438.206 139.428 439.975 133 440V440Z" fill="#8A7EBE"/>
</svg>
